<?xml version="1.0" encoding="UTF-8"?>
<svg version="1.1" xmlns="http://www.w3.org/2000/svg" width="1024" height="683">
<path d="M0 0 C337.92 0 675.84 0 1024 0 C1024 225.39 1024 450.78 1024 683 C686.08 683 348.16 683 0 683 C0 457.61 0 232.22 0 0 Z " fill="#EE1C24" transform="translate(0,0)"/>
<path d="M0 0 C2 1 2 1 3.03775024 3.56098938 C3.40637177 4.70142197 3.77499329 5.84185455 4.15478516 7.0168457 C4.46246071 7.95840012 4.46246071 7.95840012 4.77635193 8.91897583 C5.45483089 11.00220523 6.12217892 13.0888136 6.7890625 15.17578125 C7.25653454 16.62224554 7.72450789 18.0685479 8.19296265 19.51469421 C9.17449852 22.55049787 10.15068546 25.58795471 11.12304688 28.62670898 C12.36929436 32.5203058 13.62742088 36.4099358 14.88944435 40.29844379 C15.85807277 43.28674371 16.82095494 46.27687029 17.7820549 49.26759911 C18.24372386 50.70223525 18.70703531 52.1363439 19.17201614 53.56991005 C19.82176302 55.57647269 20.46388349 57.58531971 21.10400391 59.5949707 C21.47103424 60.73779007 21.83806458 61.88060944 22.21621704 63.05805969 C23 66 23 66 23 70 C47.42 70 71.84 70 97 70 C91.37868481 75.62131519 91.37868481 75.62131519 88.2421875 77.83984375 C87.54391846 78.33822754 86.84564941 78.83661133 86.1262207 79.35009766 C85.38331787 79.87394043 84.64041504 80.3977832 83.875 80.9375 C82.26110327 82.0889816 80.64784291 83.24135553 79.03515625 84.39453125 C78.20516113 84.9870166 77.37516602 85.57950195 76.52001953 86.18994141 C72.42402849 89.13197566 68.36819266 92.12778152 64.3125 95.125 C63.5280249 95.7032251 62.7435498 96.2814502 61.93530273 96.87719727 C58.12871159 99.68378193 54.32881757 102.49884492 50.5390625 105.328125 C49.49818481 106.1013208 49.49818481 106.1013208 48.4362793 106.89013672 C47.13533793 107.85658663 45.83716524 108.82677839 44.54223633 109.80126953 C40.22559151 113 40.22559151 113 38 113 C38.24234375 113.64324219 38.4846875 114.28648437 38.734375 114.94921875 C40.58738276 119.94521274 42.32302231 124.94789554 43.859375 130.05078125 C45.95279795 136.90903384 48.20912898 143.70557366 50.5 150.5 C54.24063652 161.5942428 57.85238443 172.72104422 61 184 C57.31172955 182.33404209 54.13479266 180.0543707 50.875 177.6875 C50.26809326 177.25018555 49.66118652 176.81287109 49.03588867 176.36230469 C47.71589484 175.41059229 46.39683919 174.45757762 45.07861328 173.50341797 C42.9706226 171.97875193 40.85879582 170.45953566 38.74609375 168.94140625 C10.14850187 148.36981556 10.14850187 148.36981556 3.89550781 143.29052734 C2.95723145 142.65171631 2.95723145 142.65171631 2 142 C-2.96452711 143.00328422 -7.12184961 146.79190448 -11.125 149.75 C-11.91197266 150.32492188 -12.69894531 150.89984375 -13.50976562 151.4921875 C-16.01101398 153.32207941 -18.50618296 155.15999631 -21 157 C-22.59114381 158.17187774 -24.18228962 159.34375278 -25.7734375 160.515625 C-28.13300114 162.25445575 -30.49197155 163.99406814 -32.84936523 165.73583984 C-41.18498725 171.89023406 -49.58728316 177.95160174 -58 184 C-59.14855427 180.5543372 -58.83733238 179.76076257 -57.72412109 176.4152832 C-57.26771744 175.02156242 -57.26771744 175.02156242 -56.80209351 173.59968567 C-56.46263702 172.59354721 -56.12318054 171.58740875 -55.7734375 170.55078125 C-55.4287442 169.50536667 -55.0840509 168.45995209 -54.72891235 167.38285828 C-53.61930631 164.02323425 -52.49753145 160.66782493 -51.375 157.3125 C-50.64108083 155.10119215 -49.90799844 152.88960638 -49.17578125 150.67773438 C-48.81848938 149.59845673 -48.46119751 148.51917908 -48.09307861 147.40719604 C-47.74009705 146.34082916 -47.38711548 145.27446228 -47.0234375 144.17578125 C-46.67319519 143.11932404 -46.32295288 142.06286682 -45.96209717 140.97439575 C-43.93743064 134.86075427 -41.92338818 128.74439933 -39.9765625 122.60546875 C-39.58807129 121.3836792 -39.19958008 120.16188965 -38.79931641 118.90307617 C-37.86727195 116.01978949 -37.86727195 116.01978949 -38 113 C-39.92385666 111.39781713 -41.80427754 110.01533028 -43.875 108.625 C-45.17113807 107.72737802 -46.4666829 106.82889897 -47.76171875 105.9296875 C-48.7988501 105.21570801 -48.7988501 105.21570801 -49.85693359 104.48730469 C-53.50246562 101.95727722 -57.09348198 99.35244251 -60.6875 96.75 C-61.80644653 95.94199951 -61.80644653 95.94199951 -62.94799805 95.11767578 C-69.51060162 90.37233363 -76.03324053 85.57340303 -82.54370117 80.75683594 C-83.28595947 80.20801758 -84.02821777 79.65919922 -84.79296875 79.09375 C-85.49856934 78.57167969 -86.20416992 78.04960937 -86.93115234 77.51171875 C-88.95370354 76.03382908 -90.99895448 74.59309483 -93.05078125 73.15625 C-94.02402344 72.4446875 -94.99726562 71.733125 -96 71 C-96 70.67 -96 70.34 -96 70 C-71.58 70 -47.16 70 -22 70 C-21.34 67.03 -20.68 64.06 -20 61 C-19.44012713 59.31793653 -18.84157761 57.64771891 -18.1875 56 C-16.48039764 51.47273954 -15.06936087 46.90185152 -13.75 42.25 C-11.42983033 34.11962624 -8.68827051 26.15874448 -5.85449219 18.19433594 C-3.72069183 12.17706114 -1.77333908 6.13342207 0 0 Z " fill="#FEFD00" transform="translate(170,69)"/>
<path d="M0 0 C3.35024346 3.74261432 4.61825655 8.07896933 6.1875 12.75 C7.115625 15.4725 8.04375 18.195 9 21 C16.92 21 24.84 21 33 21 C27.375 26.625 27.375 26.625 24.66796875 28.67578125 C24.09755859 29.11083984 23.52714844 29.54589844 22.93945312 29.99414062 C22.36130859 30.42919922 21.78316406 30.86425781 21.1875 31.3125 C20.2912793 31.9940918 20.2912793 31.9940918 19.37695312 32.68945312 C17.92052412 33.79633917 16.46062183 34.89865264 15 36 C16.93804872 41.94628583 19.03938614 47.79582997 21.328125 53.6171875 C22 56 22 56 21 59 C12.09 53.06 12.09 53.06 3 47 C0.07770515 48.46114743 -1.92053407 49.58890458 -4.3828125 51.56640625 C-4.99253906 52.05173828 -5.60226562 52.53707031 -6.23046875 53.03710938 C-7.16826172 53.79217773 -7.16826172 53.79217773 -8.125 54.5625 C-14.76013514 59.88006757 -14.76013514 59.88006757 -17 61 C-16.25337308 54.79664233 -14.60983335 49.15129717 -12.7421875 43.20703125 C-12.0051424 40.02222059 -11.81855519 38.93790037 -13 36 C-14.77386292 34.37506561 -14.77386292 34.37506561 -17.03515625 33.01953125 C-17.84404297 32.49552734 -18.65292969 31.97152344 -19.48632812 31.43164062 C-20.33646484 30.89732422 -21.18660156 30.36300781 -22.0625 29.8125 C-23.74266798 28.73846054 -25.42115671 27.66178794 -27.09765625 26.58203125 C-28.21926147 25.87397339 -28.21926147 25.87397339 -29.36352539 25.15161133 C-29.90356201 24.77157959 -30.44359863 24.39154785 -31 24 C-31 23.67 -31 23.34 -31 23 C-22.75 23 -14.5 23 -6 23 C-5.67 20.36 -5.34 17.72 -5 15 C-4.38638118 12.50717354 -3.72137232 10.02630474 -3 7.5625 C-2.4740625 5.73912109 -2.4740625 5.73912109 -1.9375 3.87890625 C-1 1 -1 1 0 0 Z " fill="#FEF801" transform="translate(408,206)"/>
<path d="M0 0 C4.99969155 4.14868022 9.43793054 8.50961604 13.7890625 13.33984375 C15.8406375 15.22395773 15.8406375 15.22395773 18.26171875 15.01171875 C22.8435479 13.31886033 27.07591701 10.99942264 31.38085938 8.70703125 C33.22614664 7.74919842 35.11081944 6.86805855 37 6 C37.66 6.33 38.32 6.66 39 7 C38.6918335 7.55461914 38.38366699 8.10923828 38.06616211 8.68066406 C36.67723081 11.19700029 35.30726264 13.72318217 33.9375 16.25 C33.45216797 17.12269531 32.96683594 17.99539062 32.46679688 18.89453125 C32.01240234 19.73886719 31.55800781 20.58320312 31.08984375 21.453125 C30.66566162 22.22817383 30.24147949 23.00322266 29.80444336 23.80175781 C28.8432654 26.42829692 28.90426632 27.44705682 30 30 C31.38880738 31.78323538 31.38880738 31.78323538 33.16015625 33.41796875 C33.78857422 34.03220703 34.41699219 34.64644531 35.06445312 35.27929688 C35.72380859 35.90900391 36.38316406 36.53871094 37.0625 37.1875 C38.36788777 38.44975542 39.6713853 39.71396968 40.97265625 40.98046875 C41.55281494 41.53629639 42.13297363 42.09212402 42.73071289 42.66479492 C44 44 44 44 44 45 C42.08302063 44.85833643 40.16642277 44.71150416 38.25 44.5625 C37.18265625 44.48128906 36.1153125 44.40007812 35.015625 44.31640625 C32 44 32 44 30.109375 43.46484375 C26.81506553 42.73887555 23.37335215 43 20 43 C16.7 49.27 13.4 55.54 10 62 C9.34 62 8.68 62 8 62 C6.515 50.615 6.515 50.615 5 39 C-6.88 37.02 -6.88 37.02 -19 35 C-17.69062553 32.38125106 -16.44601813 32.07490758 -13.81640625 30.8359375 C-12.97142578 30.43632812 -12.12644531 30.03671875 -11.25585938 29.625 C-10.36705078 29.2125 -9.47824219 28.8 -8.5625 28.375 C-7.23508789 27.74464844 -7.23508789 27.74464844 -5.88085938 27.1015625 C0.73010095 24 0.73010095 24 3 24 C2.90912109 23.45061768 2.81824219 22.90123535 2.72460938 22.33520508 C2.31229696 19.82829271 1.90609748 17.32042631 1.5 14.8125 C1.35691406 13.94818359 1.21382813 13.08386719 1.06640625 12.19335938 C0.40685738 8.09473423 -0.20709266 4.16773976 0 0 Z " fill="#FEF900" transform="translate(395,107)"/>
<path d="M0 0 C0.97963374 3.17337094 1.00148074 5.69159758 0.66015625 8.984375 C0.56669922 9.91894531 0.47324219 10.85351562 0.37695312 11.81640625 C0.27318359 12.78449219 0.16941406 13.75257812 0.0625 14.75 C-0.03740234 15.73355469 -0.13730469 16.71710937 -0.24023438 17.73046875 C-0.48732902 20.15434959 -0.74079713 22.57738907 -1 25 C-0.43224854 25.17958252 0.13550293 25.35916504 0.72045898 25.54418945 C5.67660806 27.14793864 10.35549228 28.95786476 15.0625 31.1875 C16.75052734 31.98220703 16.75052734 31.98220703 18.47265625 32.79296875 C19.30667969 33.19128906 20.14070313 33.58960938 21 34 C18.17032108 35.53884929 15.60578083 36.43126064 12.453125 37.0703125 C11.69161133 37.22773926 10.93009766 37.38516602 10.14550781 37.54736328 C9.18999023 37.7379834 8.23447266 37.92860352 7.25 38.125 C2.67125 39.053125 2.67125 39.053125 -2 40 C-3.485 51.88 -3.485 51.88 -5 64 C-9.5 58.375 -9.5 58.375 -11.140625 55.44921875 C-11.66269531 54.52592773 -11.66269531 54.52592773 -12.1953125 53.58398438 C-12.54335938 52.95814453 -12.89140625 52.33230469 -13.25 51.6875 C-13.61351562 51.04232422 -13.97703125 50.39714844 -14.3515625 49.73242188 C-15.23836205 48.15718584 -16.11974563 46.57890286 -17 45 C-23.08614934 44.80715623 -28.16561843 45.89572755 -34.01171875 47.44140625 C-36.8554394 47.97297756 -38.32814748 47.98162952 -41 47 C-40.24074219 46.18015625 -39.48148437 45.3603125 -38.69921875 44.515625 C-37.69521546 43.42717284 -36.6913146 42.33862618 -35.6875 41.25 C-35.18798828 40.71117187 -34.68847656 40.17234375 -34.17382812 39.6171875 C-33.20312875 38.56291798 -32.24045121 37.50119642 -31.28662109 36.43164062 C-30.22838734 35.25412968 -29.12910175 34.11364202 -28.01953125 32.984375 C-26.71487644 30.94365957 -26.71487644 30.94365957 -27.5234375 28.203125 C-29.24865228 24.46059559 -31.31708126 21.15418014 -33.625 17.75 C-38 11.25460123 -38 11.25460123 -38 9 C-32.18833022 10.82170077 -26.77009545 13.31738628 -21.2421875 15.85546875 C-18.24030372 17.11640432 -18.24030372 17.11640432 -15.8828125 17.00390625 C-12.97179924 15.45176847 -11.16547898 13.2191742 -9 10.75 C-7.7315625 9.31914063 -7.7315625 9.31914063 -6.4375 7.859375 C-4.23743503 5.27852956 -2.09936012 2.66307719 0 0 Z " fill="#FEF900" transform="translate(354,37)"/>
<path d="M0 0 C0.33 0 0.66 0 1 0 C1 7.59 1 15.18 1 23 C11.89 26.96 11.89 26.96 23 31 C19.7380964 33.1746024 17.01429181 34.00025886 13.25 35.0625 C12.05890625 35.40410156 10.8678125 35.74570312 9.640625 36.09765625 C6 37 6 37 -1 38 C-1 46.25 -1 54.5 -1 63 C-3.70064757 60.29935243 -5.57646385 58.38329201 -7.578125 55.328125 C-8.01640625 54.66425781 -8.4546875 54.00039063 -8.90625 53.31640625 C-9.3496875 52.63449219 -9.793125 51.95257813 -10.25 51.25 C-10.70890625 50.55261719 -11.1678125 49.85523438 -11.640625 49.13671875 C-12.76465406 47.42725789 -13.88291224 45.71400488 -15 44 C-20.41390145 44.68302874 -25.63677579 45.77706302 -30.9375 47.0625 C-31.71673828 47.24876953 -32.49597656 47.43503906 -33.29882812 47.62695312 C-35.19989697 48.08181009 -37.10004657 48.5405062 -39 49 C-38.16907724 47.87321838 -37.33503194 46.74873979 -36.5 45.625 C-35.96246094 44.90054688 -35.42492187 44.17609375 -34.87109375 43.4296875 C-33.55043776 41.71476469 -32.18341359 40.03507426 -30.78515625 38.3828125 C-30.05167969 37.51398438 -29.31820313 36.64515625 -28.5625 35.75 C-27.51255859 34.53570312 -27.51255859 34.53570312 -26.44140625 33.296875 C-24.77118678 31.17918485 -24.77118678 31.17918485 -25.25341797 29.11328125 C-26.07869161 26.77725487 -27.14081406 24.95876488 -28.50390625 22.890625 C-29.24350586 21.75947266 -29.24350586 21.75947266 -29.99804688 20.60546875 C-30.51431641 19.82816406 -31.03058594 19.05085938 -31.5625 18.25 C-32.08263672 17.45722656 -32.60277344 16.66445313 -33.13867188 15.84765625 C-34.42079058 13.8950718 -35.70801774 11.94606613 -37 10 C-35 9 -35 9 -33.18408203 9.52905273 C-32.46591309 9.82755127 -31.74774414 10.1260498 -31.0078125 10.43359375 C-30.22019531 10.75263672 -29.43257813 11.07167969 -28.62109375 11.40039062 C-27.79738281 11.74263672 -26.97367187 12.08488281 -26.125 12.4375 C-24.50522077 13.1092094 -22.88289294 13.77481318 -21.2578125 14.43359375 C-20.5373877 14.73322021 -19.81696289 15.03284668 -19.07470703 15.34155273 C-16.72734806 16.20166659 -16.72734806 16.20166659 -13 16 C-11.48542021 14.76307515 -11.48542021 14.76307515 -10.2734375 13.0078125 C-9.7990625 12.38519531 -9.3246875 11.76257813 -8.8359375 11.12109375 C-8.35382813 10.46238281 -7.87171875 9.80367188 -7.375 9.125 C-6.40451812 7.83528066 -5.43319851 6.54619116 -4.4609375 5.2578125 C-4.03603027 4.6817627 -3.61112305 4.10571289 -3.17333984 3.51220703 C-2 2 -2 2 0 0 Z " fill="#FEFA00" transform="translate(352,277)"/>
</svg>
